<svg id="Layer_1" data-name="Layer 1" xmlns="http://www.w3.org/2000/svg" xmlns:xlink="http://www.w3.org/1999/xlink" viewBox="0 0 153.35 153.35"><defs><style>.cls-1{fill:#fff;}.cls-2{fill:url(#radial-gradient);}.cls-3{fill:url(#radial-gradient-2);}</style><radialGradient id="radial-gradient" cx="21.44" cy="1050.4" r="8.18" gradientTransform="matrix(15.77, 0, 0, -15.7, 188.44, 17081.31)" gradientUnits="userSpaceOnUse"><stop offset="0" stop-color="#fedd57"/><stop offset="0.33" stop-color="#f15844"/><stop offset="0.35" stop-color="#f15649"/><stop offset="0.5" stop-color="#e64872"/><stop offset="0.64" stop-color="#d64092"/><stop offset="0.76" stop-color="#c44398"/><stop offset="0.84" stop-color="#bb469a"/></radialGradient><radialGradient id="radial-gradient-2" cx="20.06" cy="1047.82" r="5.43" gradientTransform="matrix(15.77, 0, 0, -10.46, 188.44, 11447.55)" gradientUnits="userSpaceOnUse"><stop offset="0" stop-color="#4a69b1"/><stop offset="1" stop-color="#4a69b1" stop-opacity="0"/></radialGradient></defs><rect class="cls-1" width="153.35" height="153.35" rx="23.02"/><path class="cls-2" d="M568.55,591.88l-57.42,0a23,23,0,0,1-23-22.84l-.05-57.17A23,23,0,0,1,511,489l57.42,0a23,23,0,0,1,23,22.84l0,57.17A23,23,0,0,1,568.55,591.88Z" transform="translate(-463.12 -463.78)"/><path class="cls-3" d="M568.55,591.88l-57.42,0a23,23,0,0,1-23-22.84l-.05-57.17A23,23,0,0,1,511,489l57.42,0a23,23,0,0,1,23,22.84l0,57.17A23,23,0,0,1,568.55,591.88Z" transform="translate(-463.12 -463.78)"/><path class="cls-1" d="M539.79,560.47a20,20,0,1,1,20.1-20A20.07,20.07,0,0,1,539.79,560.47Zm0-34.3a14.29,14.29,0,1,0,14.36,14.29A14.34,14.34,0,0,0,539.79,526.17Z" transform="translate(-463.12 -463.78)"/><ellipse class="cls-1" cx="98.21" cy="55.24" rx="4.31" ry="4.29"/><path class="cls-1" d="M557,577.62H522.57a20.08,20.08,0,0,1-20.1-20v-34.3a20.08,20.08,0,0,1,20.1-20H557a20.07,20.07,0,0,1,20.09,20v34.3A20.07,20.07,0,0,1,557,577.62ZM522.57,509a14.34,14.34,0,0,0-14.36,14.29v34.3a14.34,14.34,0,0,0,14.36,14.29H557a14.34,14.34,0,0,0,14.35-14.29v-34.3A14.34,14.34,0,0,0,557,509Z" transform="translate(-463.12 -463.78)"/></svg>